<svg width="552" height="294" viewBox="0 0 552 294" fill="none" xmlns="http://www.w3.org/2000/svg">
<g filter="url(#filter0_d_220_366)">
<path d="M465.457 45.9388C464.242 43.5097 461.813 38.1656 461.813 36.2223C461.813 35.255 461.813 31.8399 461.813 27.9545C461.813 20.8058 464.653 13.9495 469.708 8.89466L469.873 8.72944C474.822 3.78037 481.534 1 488.534 1V1V1C497.939 1 507.851 3.83568 512.756 11.8602C513.277 12.7122 513.716 13.553 514.039 14.3602V14.3602C514.93 16.5878 517.683 23.3207 517.683 25.7199V26.0891C517.683 27.6608 518.957 28.935 520.529 28.935H523.756C524.161 28.935 524.97 28.692 524.97 27.7204C524.97 27.5729 524.989 27.3862 525.022 27.1713C525.428 24.5349 527.984 22.8621 530.652 22.8621V22.8621C533.681 22.8621 536.328 25.0548 536.424 28.0827C536.482 29.9006 536.372 31.638 535.902 32.5787V32.5787C534.535 35.3115 531.85 39.1835 534.341 40.9533C534.457 41.0355 534.572 41.0806 534.687 41.0806C534.905 41.0806 535.126 41.1619 535.344 41.2972C536.914 42.2727 536.87 44.4951 536.422 46.2878V46.2878C536.081 47.649 535.362 48.939 535.017 50.2989C534.825 51.0507 534.687 52.0207 534.687 53.2262C534.687 54.7646 534.687 55.9196 534.687 56.7269C534.687 57.5591 534.217 58.3196 533.472 58.6918V58.6918C532.728 59.0639 532.258 59.8247 532.258 60.657V61.7282C532.258 63.2169 533.099 64.5777 534.43 65.2435C536.462 66.2596 539.295 67.676 541.974 69.0156C546.833 71.4447 550.476 72.6592 556.549 73.8738C562.622 75.0884 555.335 76.3029 563.837 77.5175V77.5175C571.222 78.5725 578.162 80.7626 585.246 83.1022C586.142 83.3982 587.39 83.5903 589.342 83.5903C597.844 83.5903 608.775 84.8049 611.205 86.0194C613.634 87.234 616.063 87.234 617.277 90.8777C618.492 94.5214 619.707 93.3068 619.707 96.9505C619.707 100.594 620.921 101.785 619.707 102.404C618.492 103.023 614.848 100.594 616.063 103.023C617.277 105.452 613.634 106.667 612.419 106.667V106.667C601.118 106.667 589.769 105.712 578.918 102.553C578.745 102.503 578.576 102.453 578.411 102.404C572.338 100.594 575.982 98.1651 569.909 99.3796C563.837 100.594 571.124 98.1651 560.193 96.9505C549.262 95.736 557.764 93.3068 550.476 93.3068C543.189 93.3068 552.905 93.3068 541.974 92.0923C531.043 90.8777 539.545 89.6631 532.258 89.6631C524.97 89.6631 523.756 90.8777 523.756 94.5214C523.756 97.1437 523.101 116.345 522.674 128.427C522.593 130.739 521.254 132.817 519.185 133.851L518.377 134.255C517.922 134.482 517.535 134.825 517.252 135.248V135.248C516.222 136.793 516.889 138.887 518.466 139.868C519.988 140.816 521.327 141.987 521.327 143.104C521.327 145.533 524.97 146.748 524.97 149.177C524.97 151.606 527.4 149.177 527.4 152.82C527.4 156.464 529.829 154.035 529.829 156.464C529.829 157.842 529.829 163.781 529.829 168.996C529.829 172.482 527.4 176.055 527.4 179.541V179.541C527.4 183.185 527.4 183.185 528.614 183.185C529.829 183.185 529.829 184.399 529.829 186.828C529.829 189.257 532.258 186.828 532.258 189.257C532.258 191.686 534.687 190.472 534.687 192.901C534.687 195.33 534.687 192.901 535.902 196.545C537.116 200.188 537.116 197.759 537.116 200.188C537.116 202.618 540.76 198.974 540.76 202.618C540.76 206.261 541.974 205.047 543.189 207.476C544.404 209.905 546.833 206.261 546.833 208.69C546.833 211.119 549.262 208.69 549.262 211.119C549.262 212.505 552.552 212.327 555.616 211.817C557.833 211.448 559.818 210.28 561.407 208.69V208.69C562.622 207.476 562.622 207.476 563.837 205.047C566.266 201.403 563.837 197.759 566.266 197.759C568.695 197.759 568.695 192.901 569.909 192.901C571.124 192.901 568.695 185.614 571.124 185.614C573.553 185.614 573.553 184.399 573.553 183.185C573.553 181.97 573.553 181.97 574.768 180.755C575.982 179.541 575.982 180.755 575.982 177.112C575.982 173.468 575.982 173.468 577.197 173.468C578.411 173.468 578.411 173.468 578.411 172.253C578.411 171.039 577.197 168.61 578.411 168.61C579.626 168.61 580.84 168.61 580.84 167.395C580.84 167.342 580.84 167.285 580.84 167.227C580.84 165.63 583.27 164.133 583.27 162.537V162.537C583.27 162.348 583.285 162.181 583.313 162.033C583.569 160.693 585.549 158.893 586.913 158.893V158.893C588.128 158.893 588.128 156.464 589.342 156.464C590.557 156.464 588.128 154.035 590.557 154.035C592.986 154.035 591.772 151.606 592.986 151.606C594.201 151.606 592.986 149.177 595.415 149.177C596.045 149.177 596.691 149.177 597.305 149.177C598.944 149.177 599.848 146.748 601.488 146.748V146.748C602.105 146.748 603.08 146.748 603.917 146.748C604.588 146.748 605.132 146.204 605.132 145.533V145.533C605.132 144.862 605.676 144.318 606.346 144.318H612.261C613.168 144.318 614.064 144.142 614.914 143.827C617.18 142.987 620.536 141.889 622.136 141.889C624.565 141.889 624.565 140.675 628.208 141.889C631.852 143.104 629.423 144.318 635.496 144.318C640.354 144.318 641.569 144.318 641.569 144.318C641.569 144.318 641.569 144.318 641.569 144.318C641.974 144.318 642.783 144.561 642.783 145.533C642.783 146.748 648.856 144.318 648.856 146.748C648.856 149.177 654.929 147.962 654.929 149.177C654.929 150.391 658.573 149.177 659.787 151.606C661.002 154.035 664.645 151.606 665.86 154.035C667.075 156.464 671.933 154.035 671.933 156.464C671.933 158.893 675.577 155.25 676.791 158.893C678.006 162.537 682.864 158.893 682.864 161.322C682.864 163.752 688.937 163.752 687.722 164.966C686.508 166.181 692.58 163.752 692.58 166.181C692.58 168.61 695.01 166.181 695.01 168.61C695.01 171.039 699.868 169.824 699.868 171.039C699.868 172.253 702.297 171.039 703.512 173.468C704.726 175.897 707.155 175.897 707.155 177.112C707.155 178.326 712.013 175.897 712.013 178.326C712.013 180.755 714.443 174.683 714.443 180.755C714.443 186.828 718.086 181.97 719.301 184.399C720.515 186.828 721.73 185.614 721.73 186.828C721.73 188.043 724.159 186.828 724.159 188.043C724.159 189.257 729.017 188.043 729.017 190.472C729.017 192.901 733.876 190.472 733.876 192.901C733.876 195.33 736.305 192.901 736.305 195.33C736.305 197.759 738.734 195.33 738.734 197.759C738.734 200.188 743.592 197.759 743.592 200.188C743.592 202.618 744.807 202.618 746.021 202.618C746.993 202.618 797.438 238.245 822.539 256.058L832.777 262.359C846.937 271.073 864.658 280.186 858.976 264.56V264.56C849.259 237.84 843.186 208.69 844.401 205.047C845.616 201.403 843.186 174.683 877.194 168.61C911.202 162.537 903.915 161.322 937.922 162.537C965.129 163.509 1028.61 163.752 1056.95 163.752C1058.97 163.752 1063.75 162.537 1066.67 157.679C1070.31 151.606 1073.95 147.962 1065.45 152.82C1056.95 157.679 1043.59 167.395 1038.73 174.683C1038.61 174.86 1038.5 175.034 1038.38 175.205C1034.75 180.635 1027.8 185.152 1027.8 191.686V191.686C1027.8 192.901 1029.01 194.116 1025.37 195.33C1023.96 195.8 1023.25 197.047 1022.94 198.437C1022.43 200.726 1024.78 202.311 1027.09 201.926V201.926C1028.96 201.615 1030.39 200.124 1030.82 198.279C1031.46 195.498 1032.51 192.37 1033.87 191.686C1036.3 190.472 1042.38 184.399 1042.38 183.185C1042.38 181.97 1044.8 178.326 1046.02 179.541C1046.18 179.703 1046.3 179.935 1046.38 180.216C1047.31 183.288 1043.39 186.215 1042.38 189.257V189.257C1041.16 192.901 1038.73 190.472 1038.73 194.116C1038.73 196.203 1038.73 197.585 1038.73 198.35C1038.73 198.732 1038.95 199.082 1039.29 199.253V199.253C1040.05 199.631 1040.03 200.715 1039.27 201.073L1023.26 208.543C1023.05 208.641 1022.83 208.719 1022.6 208.775V208.775C1020.31 209.349 1018.08 207.613 1018.08 205.247V193.032C1018.08 189.472 1020.7 186.454 1024.23 185.951V185.951C1025.76 185.732 1027.19 185.037 1028.21 183.87C1029.24 182.686 1030.23 181.375 1030.23 180.755C1030.23 179.991 1032.23 177.171 1033.88 175.018C1034.66 173.988 1035.25 172.817 1035.56 171.56V171.56C1036.04 169.646 1037.14 167.942 1038.68 166.71L1048.45 158.893C1052.5 155.654 1061.32 148.934 1064.24 147.962C1067.88 146.748 1076.38 144.318 1077.6 147.962C1078.81 151.606 1080.03 152.82 1077.6 156.464C1075.17 160.108 1069.1 161.322 1067.88 163.752V163.752C1065.06 169.384 1056.21 167.395 1049.92 167.395H1048.45L1013.23 169.824C979.218 167.8 907.073 164.966 890.554 169.824C869.907 175.897 861.405 177.112 857.761 185.614C854.118 194.116 850.474 191.686 850.474 201.403C850.474 211.119 848.045 211.119 850.474 220.836C852.903 230.552 861.405 256.058 863.834 259.702C866.263 263.346 868.692 266.989 869.907 274.277V274.277C871.055 281.163 865.719 287.243 859.093 285.046C858.258 284.77 857.406 284.423 856.547 283.993C850.717 281.078 811.203 255.249 792.175 242.698L729.017 197.759C710.799 184.804 669.747 157.679 651.285 152.82C628.208 146.748 624.565 145.533 617.277 146.748C609.99 147.962 602.703 152.82 596.63 156.464C590.557 160.108 585.699 168.61 582.055 177.112C578.411 185.614 578.411 181.97 575.982 189.257C573.553 196.545 566.266 207.476 565.051 211.119C563.837 214.763 557.764 218.407 549.262 215.978C540.76 213.549 537.116 209.905 531.043 197.759C528.629 192.931 526.715 188.103 525.301 184.02C523.489 178.79 526.185 171.716 526.185 166.181V166.181C526.185 160.54 523.911 155.202 522.663 153.028C522.583 152.889 522.489 152.759 522.384 152.637L521.775 151.927C520.02 149.879 516.83 151.477 517.683 154.035V154.035C518.898 157.679 520.112 162.537 522.541 166.181C524.328 168.86 522.83 171.745 521.633 173.137C521.447 173.353 521.347 173.634 521.383 173.917V173.917C521.521 175.025 519.941 175.384 519.588 174.324L514.039 157.679L510.491 146.324C508.894 141.215 506.25 137.563 501.894 140.675V140.675C493.392 146.748 488.534 151.606 486.104 157.679C483.675 163.752 487.319 167.395 488.534 171.039C488.955 172.302 490.151 174.219 491.569 176.216C494.955 180.983 499.804 184.467 505.537 185.614V185.614C511.61 186.828 514.039 186.828 514.039 190.472C514.039 191.487 514.138 193.022 514.283 194.729C514.772 200.485 511.456 207.168 514.039 212.334V212.334C515.983 216.221 525.375 226.909 529.829 231.767C531.853 234.601 536.63 240.026 539.545 239.054C543.189 237.84 548.047 235.411 546.833 231.767C546.5 230.769 545.968 229.457 545.363 228.067C543.461 223.693 545.593 220.39 548.047 224.48V224.48C551.691 230.552 551.691 226.909 551.691 231.767C551.691 236.625 551.691 237.84 552.905 237.84C554.12 237.84 554.12 245.127 555.335 243.913C556.118 243.13 556.953 251.761 557.46 258.744C557.638 261.194 555.611 263.223 553.158 263.084L551.182 262.972C549.573 262.88 548.462 261.323 548.899 259.772V259.772C549.126 258.968 549.736 258.329 550.528 258.065L551.051 257.891C552.206 257.506 553.084 256.558 553.38 255.376L553.715 254.036C553.98 252.975 553.96 251.861 553.62 250.822C552.227 246.558 549.76 240.269 548.047 240.269C547.741 240.269 547.37 240.349 546.956 240.491C542.432 242.038 542.173 248.131 545.322 251.729L547.258 253.942C547.755 254.51 547.96 255.278 547.812 256.019V256.019C547.415 258.007 544.902 258.664 543.582 257.125L532.258 243.913L522.541 231.767C518.898 226.909 511.367 216.464 510.396 213.549C509.181 209.905 507.967 208.69 507.967 207.476C507.967 206.261 510.396 201.403 510.396 200.188V200.188C510.396 194.657 506.205 189.453 500.701 190.001C499.937 190.077 499.465 190.225 499.465 190.472C499.465 191.381 503.722 196.619 506.259 199.61C506.576 199.984 506.752 200.458 506.752 200.949V200.949C506.752 202.961 504.154 203.783 502.987 202.145C500.384 198.49 497.667 194.747 497.035 194.116C495.821 192.901 492.177 185.614 490.963 184.399C489.748 183.185 486.104 179.541 486.104 177.112C486.104 176.118 485.469 174.657 484.685 173.251C483.432 171.003 478.817 168.465 478.817 171.039V171.039C478.817 172.253 475.173 178.326 472.744 183.185C470.315 188.043 469.1 190.472 467.886 191.686C466.671 192.901 466.671 196.545 467.886 197.759C469.1 198.974 470.315 202.618 475.173 205.047C479.06 206.99 488.129 211.524 492.177 213.549C494.201 214.763 498.736 217.921 500.679 220.836V220.836C501.38 221.887 501.894 225.425 501.894 226.688V235.411C501.894 235.816 501.651 237.111 500.679 239.054C499.465 241.484 498.25 239.054 498.25 242.698C498.25 246.342 499.465 241.484 497.035 246.342C494.606 251.2 492.177 245.127 492.177 248.771C492.177 249.204 492.106 249.554 491.978 249.832C490.558 252.935 486.089 248.755 483.675 246.342V246.342V246.342C481.632 244.299 481.246 241.194 481.246 238.304V232.982C481.246 231.767 480.517 229.338 477.602 229.338V229.338C469.281 229.338 462.104 223.347 454.432 220.124C453.967 219.929 453.585 219.758 453.311 219.621C450.882 218.407 438.736 209.905 437.522 207.476C436.682 205.797 434.574 202.788 433.232 200.956C432.858 200.445 432.561 199.882 432.361 199.281V199.281C431.786 197.554 431.935 195.13 433.745 194.946C434.545 194.864 435.442 195.247 436.307 196.545C436.822 197.317 437.405 198.163 438.007 199.02C440.845 203.062 444.386 206.551 448.337 209.514V209.514C450.838 211.39 453.517 213.013 456.263 214.508C458.207 215.566 460.053 216.647 460.599 217.192C461.813 218.407 467.886 218.407 470.315 220.836C472.744 223.265 475.173 220.836 477.602 223.265C480.032 225.694 484.89 226.909 484.89 229.338C484.89 231.767 484.89 232.982 484.89 235.411C484.89 237.84 483.675 240.269 484.89 242.698C486.104 245.127 487.319 246.342 488.534 246.342C489.748 246.342 493.392 245.127 493.392 243.913C493.392 242.698 495.193 242.698 495.821 239.054C496.323 236.139 496.84 232.172 497.035 230.552L497.617 227.065C498.038 224.536 498.385 220.836 495.821 220.836V220.836C493.392 220.836 495.821 219.621 492.177 223.265C490.11 225.332 489.55 227.114 489.543 228.264C489.539 228.946 489.515 229.688 489.136 230.256L488.766 230.811C488.121 231.778 486.672 231.688 486.152 230.649V230.649C486.12 230.585 486.093 230.518 486.07 230.45L485.927 230.019C485.263 228.028 485.398 225.843 486.431 224.016C487.185 222.681 487.996 221.374 488.534 220.836C489.748 219.621 491.957 217.192 490.245 217.192C488.534 217.192 484.89 213.549 480.032 212.334C479.675 212.245 479.316 212.135 478.957 212.007C472.405 209.676 467.471 204.23 461.813 200.188V200.188L455.166 194.65C454.744 194.297 454.399 193.862 454.153 193.37L453.36 191.785C452.693 190.451 453.362 188.835 454.777 188.364V188.364C455.394 188.158 456.069 188.202 456.634 188.524C457.53 189.035 458.687 189.775 459.384 190.472C460.599 191.686 460.599 191.686 461.813 191.686C463.028 191.686 465.457 186.828 465.457 184.399C465.457 181.97 469.1 181.97 469.1 179.541C469.1 177.112 469.1 178.326 471.53 174.683C473.959 171.039 473.959 171.039 475.173 168.61C476.388 166.181 477.602 163.752 477.602 162.537C477.602 161.322 480.032 157.679 481.246 155.25C482.461 152.82 482.461 151.606 486.104 149.177C489.748 146.748 495.821 138.246 497.035 138.246C498.25 138.246 501.894 135.817 501.894 134.602C501.894 133.387 504.323 132.173 499.465 130.958C494.606 129.744 495.821 130.958 486.104 130.958C476.388 130.958 458.169 127.315 459.384 129.744C460.599 132.173 470.315 141.889 471.53 143.104C472.744 144.318 475.173 147.962 476.388 150.391C477.602 152.82 478.817 150.391 478.817 154.035V154.035C478.817 157.22 475.166 156.711 473.519 153.985C470.818 149.516 467.388 144.231 464.489 140.711C462.235 137.976 456.87 134.004 455.71 137.354C455.498 137.963 455.198 138.993 454.526 140.675C452.097 146.748 449.667 156.464 446.024 162.537C442.38 168.61 437.522 179.541 432.664 186.828C427.805 194.116 427.805 198.974 422.947 202.618C418.089 206.261 391.368 245.127 374.364 254.844C357.36 264.56 351.288 270.633 347.644 270.633C344 270.633 329.425 271.848 323.353 263.346C317.28 254.844 317.28 249.986 314.851 231.767C312.422 213.549 313.636 205.047 308.778 202.618C303.92 200.188 299.061 184.399 284.487 181.97C269.912 179.541 239.548 181.97 233.475 183.185C227.402 184.399 182.463 191.686 181.249 191.686C180.034 191.686 159.386 195.33 153.314 191.686C147.241 188.043 142.382 185.614 143.597 181.97C144.812 178.326 148.455 172.253 149.67 168.61C150.642 165.695 154.933 159.298 156.957 156.464L166.674 143.104C168.698 140.27 171.532 134.845 166.674 135.817C160.601 137.031 154.528 138.246 153.314 140.675C152.099 143.104 152.099 143.104 139.953 160.108C127.808 177.112 120.52 190.472 116.877 194.116C113.233 197.759 97.4436 218.407 92.5853 219.621C87.7271 220.836 79.2251 229.338 69.5086 229.338C64.3649 229.338 54.6829 229.338 46.375 229.338C41.992 229.338 39.5567 234.408 42.2947 237.83L42.731 238.376C44.1465 240.145 45.4969 243.196 47.6464 243.913V243.913C51.2901 245.127 52.5047 248.771 51.2901 254.844C50.7734 257.428 49.5467 259.439 48.2677 260.877C46.6613 262.684 43.9955 262.429 42.0612 260.979V260.979C40.9563 260.15 39.6113 259.721 38.2335 259.626C35.3586 259.427 31.8571 258.8 31.8571 257.273C31.8571 254.844 34.2862 249.986 33.0717 248.771C32.4777 248.177 30.9458 245.132 29.4747 242.023C28.2804 239.498 31.8571 236.262 31.8571 239.054V239.054C31.8571 241.484 35.5008 241.484 35.5008 245.127C35.5008 248.771 36.7153 249.986 37.9299 251.2C39.1445 252.415 39.1445 252.415 40.359 254.844C40.4777 255.081 40.6218 255.297 40.7855 255.492C42.5266 257.574 45.2173 255.073 45.2173 252.36V252.36C45.2173 251.597 45.0397 250.845 44.6986 250.163L44.0027 248.771C43.204 247.173 42.8483 245.345 42.0313 243.756C41.6589 243.032 41.121 242.246 40.359 241.484C33.0717 234.196 33.0717 230.552 28.2134 228.123C23.3551 225.694 28.2134 222.051 25.7843 220.836C23.3551 219.621 12.424 206.261 11.2095 209.905C9.99492 213.549 8.78035 214.763 14.8532 217.192C18.5285 218.662 21.972 220.225 24.1323 221.25C25.0847 221.701 25.5366 222.793 25.2033 223.793V223.793C24.8477 224.86 23.7218 225.464 22.6409 225.155C17.9554 223.815 11.2095 221.682 11.2095 220.836C11.2095 219.621 3.92198 214.763 5.13655 209.905C6.35111 205.047 12.4243 201.403 14.8532 205.047C17.2821 208.69 26.9988 214.763 26.9988 215.978C26.9988 217.192 30.6425 219.621 31.8571 220.836C33.0717 222.051 35.5008 226.909 40.359 225.694C43.0665 225.017 53.004 224.694 61.7954 224.56C68.4323 224.459 74.9441 222.676 80.6359 219.261V219.261C82.9272 217.886 85.3846 216.81 87.7886 215.643C90.4654 214.345 93.7442 212.39 96.2288 209.905C101.087 205.047 110.804 196.545 110.804 194.116C110.804 191.686 115.662 184.399 126.593 168.61C137.524 152.82 147.24 141.889 148.455 140.675C149.67 139.46 161.816 129.744 166.674 129.744C171.532 129.744 176.39 128.529 176.39 132.173C176.39 135.817 173.961 143.104 171.532 145.533C169.103 147.962 159.386 156.464 158.172 160.108C156.957 163.752 153.313 167.395 152.099 169.824C150.884 172.253 143.597 185.614 153.314 186.828C163.03 188.043 176.39 189.257 178.819 188.043C180.763 187.071 212.827 181.97 228.616 179.541C245.62 177.921 280.6 175.168 284.487 177.112C289.345 179.541 303.919 188.043 307.563 192.901C311.207 197.759 312.422 198.974 314.851 209.905C317.28 220.836 319.709 224.48 319.709 230.552C319.709 236.625 319.709 241.484 319.709 245.127C319.709 248.771 322.138 258.487 326.996 260.917C331.854 263.346 344 268.204 348.858 265.775C353.717 263.346 367.077 256.058 375.579 247.556C384.081 239.054 409.587 213.549 416.874 202.618C420.067 197.828 423.891 192.092 427.229 187.085C431.643 180.464 434.323 172.801 438.736 166.181V166.181C441.165 162.537 446.024 154.035 447.238 149.177C447.522 148.041 447.951 146.808 448.447 145.582C450.487 140.535 455.411 129.153 450.882 132.173V132.173C447.238 134.602 446.024 133.387 442.38 140.675C438.736 147.962 435.093 152.82 436.307 157.679V157.679C437.211 161.292 432.664 160.838 432.664 157.113C432.664 156.243 432.664 155.592 432.664 155.25C432.664 152.82 433.878 147.962 436.307 143.104C438.736 138.246 443.594 133.387 444.809 132.173C446.024 130.958 443.594 127.315 447.238 126.1C450.153 125.128 472.744 124.885 483.675 124.885H501.588C503.769 124.885 505.537 123.118 505.537 120.937V120.937C505.537 118.534 503.409 116.688 501.03 117.027L499.566 117.237C498.114 117.444 497.035 118.688 497.035 120.155V120.732C497.035 121.746 496.346 122.629 495.363 122.874V122.874C493.842 123.255 492.42 121.972 492.641 120.42L492.891 118.674C493.164 116.763 491.79 115.009 489.869 114.817L484.788 114.309C483.027 114.133 481.597 115.709 481.944 117.445V117.445C482.229 118.871 483.617 119.796 485.043 119.511L486.397 119.24C487.502 119.019 488.534 119.864 488.534 120.992V120.992C488.534 121.843 487.932 122.577 487.097 122.744L484.252 123.313C483.091 123.545 481.886 123.383 480.826 122.854L480.713 122.797C480.261 122.571 479.78 122.406 479.284 122.307L477.581 121.966C475.4 121.53 473.717 119.791 473.351 117.598L473.082 115.984C472.879 114.762 471.941 113.794 470.726 113.551V113.551C468.731 113.152 466.932 114.825 467.184 116.844L467.351 118.176C467.635 120.449 465.862 122.456 463.572 122.456V122.456C461.824 122.456 460.293 121.269 459.922 119.561C459.632 118.227 459.384 116.921 459.384 116.384C459.384 115.8 459.968 115.479 460.61 115.316C461.26 115.151 461.813 114.625 461.813 113.954V113.954C461.813 113.284 461.269 112.74 460.598 112.74H458.169C456.157 112.74 454.526 114.371 454.526 116.383V117.598C454.526 118.94 455.613 120.027 456.955 120.027H457.562C458.568 120.027 459.384 120.843 459.384 121.849V121.849C459.384 122.855 458.568 123.671 457.562 123.671H455.326C452.939 123.671 451.068 121.622 451.284 119.245L451.877 112.73C452.001 111.36 453.15 110.311 454.526 110.311V110.311M454.526 110.311H481.114C486.995 110.311 493.2 103.023 487.319 103.023V103.023C483.555 103.023 471.289 103.023 461.811 103.023C457.786 103.023 454.526 106.286 454.526 110.311V110.311ZM450.882 109.096L451.775 106.418C451.988 105.778 452.097 105.109 452.097 104.435V103.023C452.097 100.34 454.272 98.1651 456.955 98.1651V98.1651M456.955 98.1651H479.21C484.359 98.1651 488.534 93.991 488.534 88.842V88.209C488.534 86.7813 488.956 85.3855 489.748 84.1976V84.1976C490.54 83.0097 490.962 81.6139 490.962 80.1862V73.8738V70.7332C490.962 69.6334 491.399 68.5787 492.177 67.801V67.801C492.955 67.0233 493.392 65.9686 493.392 64.8688V64.452C493.392 61.6061 491.084 59.299 488.239 59.299H466.821C464.591 59.299 462.648 60.8163 462.107 62.9791V62.9791C461.341 66.0453 463.66 69.0156 466.821 69.0156H471.993C473.198 69.0156 474.299 69.696 474.837 70.7733V70.7733C475.058 71.2148 475.173 71.7017 475.173 72.1953V87.2322C475.173 88.7887 474.555 90.2815 473.454 91.3821V91.3821C472.233 92.6028 470.537 93.2241 468.817 93.0808L463.006 92.5966C459.749 92.3251 456.955 94.896 456.955 98.1651V98.1651ZM452.097 96.9505V96.9505C452.097 94.7745 450.682 92.8763 448.749 91.8782C446.528 90.7317 444.216 89.0989 443.594 87.234C442.78 84.7903 444.754 85.0212 446.367 85.6368C446.944 85.857 447.387 86.3181 447.664 86.8705V86.8705C448.147 87.8377 449.136 88.4486 450.217 88.4486H463.609C467.4 88.4486 470.557 85.5434 470.872 81.7664V81.7664C471.226 77.5177 467.873 73.8738 463.609 73.8738H452.704C449.685 73.8738 447.238 76.3208 447.238 79.3393V82.7588C447.238 83.8888 446.322 84.8049 445.192 84.8049V84.8049C444.253 84.8049 443.435 84.1659 443.207 83.255L442.955 82.2493C442.61 80.868 441.437 79.8515 440.019 79.7173C435.566 79.2954 429.022 78.7321 426.59 78.7321C422.947 78.7321 412.016 71.4447 408.372 71.4447C404.728 71.4447 392.583 64.1573 387.724 61.7282C387.565 61.6483 387.404 61.5668 387.244 61.4838C381.13 58.3259 378.008 51.6056 378.008 44.7243V44.7243C378.008 43.1049 378.98 39.866 382.866 39.866C387.724 39.866 396.226 42.2952 397.441 43.5097C397.833 43.9019 398.239 44.835 398.609 45.9416C399.654 49.0604 398.655 52.3663 398.655 55.6554V55.6554V55.6554C398.655 60.6674 393.59 47.1171 388.876 45.4152C387.73 45.0014 386.838 44.7243 386.51 44.7243C385.295 44.7243 381.652 45.9388 381.652 48.368C381.652 50.7971 379.222 53.2262 382.866 54.4408C386.51 55.6554 386.51 55.6554 391.368 58.0845C396.226 60.5136 398.655 60.5136 398.655 59.299V59.299C398.655 57.6584 401.085 58.4606 401.085 60.1012V60.4904C401.085 61.249 401.513 61.9424 402.191 62.2816C403.206 62.7889 404.612 63.4921 405.943 64.1573C408.372 65.3719 414.445 69.0156 415.659 69.0156C416.503 69.0156 421.066 71.455 424.11 73.1582C424.954 73.6309 425.838 74.028 426.757 74.3341V74.3341C428.255 74.8337 429.825 75.0884 431.405 75.0884H438.884C440.972 75.0884 442.825 73.7524 443.485 71.7717L443.506 71.7104C443.565 71.5335 443.636 71.361 443.72 71.1942V71.1942C444.387 69.859 445.752 69.0156 447.245 69.0156H452.693C455.047 69.0156 456.955 67.1077 456.955 64.7542V64.7542C456.955 64.3582 457.01 63.9641 457.119 63.5834L457.356 62.7529C458.571 58.5 462.337 55.4764 466.752 55.2088L496.967 53.3776C498.321 53.2955 499.465 54.3719 499.465 55.7289V57.0032C499.465 57.6004 498.981 58.0845 498.383 58.0845V58.0845C497.692 58.0845 497.178 58.725 497.328 59.4003L498.931 66.6152C499.253 68.0619 498.652 69.5574 497.419 70.3794V70.3794C496.42 71.0449 495.821 72.1654 495.821 73.3652V84.6615C495.821 85.4937 495.35 86.2545 494.606 86.6267V86.6267C493.862 86.9989 493.392 87.7597 493.392 88.5919V101.522C493.392 103.308 493.807 105.07 494.606 106.667L495.509 108.474C495.714 108.883 495.821 109.334 495.821 109.792V109.792C495.821 111.42 497.141 112.744 498.768 112.684C501.941 112.569 505.537 112.249 505.537 111.525C505.537 110.655 505.537 100.627 505.537 94.1803C505.537 92.874 504.884 91.657 503.797 90.9324V90.9324C502.622 90.1485 501.961 88.7908 502.069 87.3819L502.955 75.8609C503.057 74.5385 503.27 73.227 503.591 71.9403L504.323 69.0156L505.537 59.299L506.623 54.9574C506.708 54.6143 506.752 54.262 506.752 53.9083V53.9083C506.752 51.5192 504.815 49.5825 502.426 49.5825H474.88C471.058 49.5825 467.267 50.2699 463.689 51.6119L459.384 53.2262L452.097 55.6554L442.38 59.299L435.33 61.9426C433.567 62.604 431.698 62.9427 429.815 62.9427V62.9427C427.687 62.9427 425.582 62.5106 423.627 61.6726L418.089 59.299L405.623 53.6328C405.166 53.425 404.634 53.6973 404.536 54.1897V54.1897C404.36 55.0679 403.084 55.0055 402.995 54.1144L402.498 49.1406C402.398 48.1392 403.276 47.321 404.257 47.547C406.914 48.1592 410.5 49.281 412.016 50.7971C413.959 52.7404 419.303 54.8456 421.732 55.6554L425.359 56.8644C427.766 57.6668 430.394 59.2192 432.663 58.0845V58.0845C435.092 56.8699 438.736 54.4408 442.38 54.4408C446.024 54.4408 446.024 53.2262 448.453 52.0117C450.882 50.7971 453.311 50.7971 455.74 49.5825C455.947 49.4793 456.173 49.3751 456.415 49.2709C460.657 47.4449 465.356 47.0905 469.973 46.9657L505.443 46.0071C506.997 45.9651 508.448 46.7811 509.219 48.1306L509.888 49.3015C511.196 51.5915 510.395 56.6615 510.395 59.299V59.299C510.395 61.3009 510.395 63.3887 510.395 65.1641C510.395 67.2917 507.966 69.3171 507.966 71.4447V71.4447C507.966 73.388 507.966 80.3515 507.966 83.5903V95.736L510.094 126.584C510.264 129.047 512.311 130.958 514.78 130.958V130.958C516.559 130.958 518.186 129.953 518.981 128.362L519.441 127.443C519.882 126.56 520.112 125.586 520.112 124.599V107.274V93.9141C520.112 90.8956 517.665 88.4486 514.646 88.4486H511.61C510.268 88.4486 509.181 87.361 509.181 86.0194V86.0194C509.181 84.6779 510.267 83.5903 511.608 83.5903C516.772 83.5903 524.141 83.5903 524.97 83.5903C526.185 83.5903 532.258 84.8049 533.472 86.0194C534.687 87.234 554.12 89.6631 555.334 90.8777C556.549 92.0923 560.192 90.8777 565.051 93.3068C569.909 95.736 573.553 98.1651 579.626 98.1651C585.698 98.1651 585.698 99.3796 590.557 100.594C595.415 101.809 596.63 103.643 601.488 103.023C606.346 102.404 610.389 102.404 611.672 102.404C612.955 102.404 612.419 100.594 613.633 99.3796C613.876 99.1372 614.023 98.6882 614.1 98.1193C614.591 94.501 611.252 91.6953 607.65 91.095V91.095C606.785 90.9509 605.952 90.6696 605.142 90.3366C603.115 89.5038 599.767 88.4486 596.63 88.4486C596.174 88.4486 595.747 88.4486 595.348 88.4486C592.701 88.4486 590.557 90.5943 590.557 93.2413V97.7698C590.557 98.5875 589.788 99.1875 588.995 98.9892L587.843 98.7012C587.106 98.5171 586.997 97.516 587.676 97.1765V97.1765C587.953 97.038 588.128 96.7549 588.128 96.4451V92.0277C588.128 88.4713 585.77 85.3299 582.276 84.6694C579.2 84.0879 575.57 83.5903 572.338 83.5903C565.051 83.5903 566.265 78.7321 561.407 79.9466C556.549 81.1612 560.193 76.3029 554.12 77.5175C551.409 78.0598 548.571 78.375 546.241 78.5478C543.449 78.7548 540.696 79.4627 538.265 80.8517L535.586 82.3825C534.216 83.1653 532.624 83.4692 531.062 83.246L525.529 82.4555C525.208 82.4098 524.97 82.1353 524.97 81.8116V81.8116C524.97 81.4524 525.261 81.1612 525.621 81.1612H529.05C530.234 81.1612 532.413 79.2614 533.472 78.7321V78.7321C535.901 77.5175 538.33 76.3029 539.545 76.3029V76.3029C541.464 76.3029 540.446 73.2626 538.665 72.55C537.552 72.1049 536.552 71.7049 536.123 71.5334C535.974 71.4736 535.83 71.4095 535.687 71.3351C534.799 70.8715 533.152 69.9093 532.258 69.0156C531.043 67.801 531.043 67.801 527.399 65.3719C523.756 62.9427 522.541 64.1573 521.327 61.7282C520.112 59.299 520.112 56.8699 517.683 56.8699C517.516 56.8699 517.348 56.8639 517.179 56.8528C514.579 56.6801 512.648 52.0117 515.254 52.0117V52.0117C516.468 52.0117 521.327 55.6554 522.541 56.8699C522.681 57.0102 522.874 57.1353 523.106 57.2467C526.075 58.6732 527.749 53.2262 531.043 53.2262V53.2262C532.258 53.2262 532.258 47.1534 532.258 45.9388C532.258 44.7243 529.828 42.2952 529.828 41.0806C529.828 39.866 527.399 37.4369 526.185 37.4369C524.97 37.4369 523.756 35.0078 521.327 35.0078C521.104 35.0078 520.89 35.0078 520.685 35.0078C519.027 35.0078 517.683 36.3521 517.683 38.0103V38.0103C517.683 39.1476 517.04 40.1873 516.023 40.6959L515.984 40.7156C515.505 40.9548 515.098 41.3147 514.801 41.7598L514.119 42.7832C513.275 44.0489 512.825 45.536 512.825 47.0572V48.368V48.368C512.825 49.0504 511.926 49.2993 511.575 48.7141L509.593 45.4105C509.331 44.975 509.273 44.447 509.434 43.9651L509.984 42.3164C510.254 41.5037 510.711 40.7652 511.317 40.1594L511.61 39.866C512.409 39.0673 513.011 38.0936 513.368 37.022L513.951 35.2735C514.01 35.0966 514.081 34.9241 514.164 34.7573V34.7573C514.832 33.4221 516.197 32.5787 517.689 32.5787H526.185C526.856 32.5787 527.399 33.1224 527.399 33.7932V33.7932C527.399 34.464 527.943 35.0078 528.614 35.0078V35.0078C529.285 35.0078 529.828 34.464 529.828 33.7932V33.5065C529.828 32.9379 530.15 32.418 530.658 32.1637L531.248 31.869C531.889 31.5485 532.358 30.964 532.531 30.2688V30.2688C532.968 28.5207 531.436 26.9131 529.669 27.2665L528.472 27.5058C527.848 27.6306 527.399 28.1784 527.399 28.8147V28.8147C527.399 29.5519 526.802 30.1495 526.065 30.1495H518.329C516.408 30.1495 514.614 29.1892 513.548 27.5904V27.5904C513.072 26.8764 512.762 26.0649 512.64 25.2154L512.155 21.8164C511.795 19.3001 510.936 16.8811 509.629 14.7015V14.7015C508.528 12.8676 507.127 11.2319 505.484 9.86273L505.373 9.76993C502.314 7.22072 498.561 5.64649 494.599 5.25026L488.533 4.64369H486.711C485.705 4.64369 484.89 5.45936 484.89 6.46554V6.46554C484.89 7.47171 485.705 8.28738 486.711 8.28738H490.042C491.409 8.28738 492.696 8.86351 493.784 9.69029C494.519 10.2487 495.298 10.7165 495.821 10.7165C497.035 10.7165 498.25 11.9311 500.679 13.1456C503.108 14.3602 505.537 15.5748 505.537 16.7893C505.537 18.0039 505.537 18.0039 506.752 19.2185C507.966 20.433 507.966 21.6476 509.181 22.8621C509.997 23.6783 511.442 26.8369 512.363 29.0266C512.674 29.7661 512.825 30.5617 512.825 31.3641V31.3641V33.5065C512.825 33.695 512.781 33.881 512.696 34.0497V34.0497C512.249 34.9449 510.589 34.9769 509.611 35.1935C509.133 35.2995 508.582 35.6063 507.966 36.2223C505.639 38.5494 504.427 37.5326 502.193 39.5785C501.991 39.7643 501.778 39.9425 501.55 40.0973C500.873 40.5589 500.229 41.0263 499.631 41.4804C497.877 42.814 495.141 42.0041 494.606 39.866V39.866M494.606 39.866C496.226 39.4612 499.707 38.4086 500.679 37.4369C501.894 36.2223 504.323 37.4369 506.752 33.7932C507.116 33.2467 507.401 32.6631 507.62 32.065C509.168 27.8441 506.287 23.612 503.108 20.433V20.433C500.679 18.0039 503.108 16.7893 498.25 15.5748C493.392 14.3602 494.606 15.5748 490.962 13.1456C487.319 10.7165 490.962 11.9311 484.89 10.7165C478.817 9.50194 476.388 9.50194 475.173 9.50194C473.959 9.50194 472.744 10.7165 471.529 11.9311C470.315 13.1456 467.886 16.7893 467.886 18.0039C467.886 19.2185 466.671 22.8621 466.671 25.2913C466.671 27.7204 465.456 27.7204 465.457 31.3641C465.457 35.0078 464.242 37.4369 467.886 39.866C471.529 42.2952 469.1 41.0806 476.388 41.0806C482.218 41.0806 490.153 40.2709 493.392 39.866H494.606ZM481.246 13.1456V14.3602C481.246 15.031 480.702 15.5748 480.031 15.5748V15.5748C479.361 15.5748 478.817 16.1185 478.817 16.7893V16.9665C478.817 18.0011 477.392 18.4961 476.719 19.2815C476.516 19.518 476.388 19.8855 476.388 20.433C476.388 22.0833 476.388 27.9382 476.388 31.8977C476.388 33.0124 475.629 33.9829 474.548 34.2532V34.2532C473.015 34.6365 471.529 33.4769 471.529 31.8966V23.9947C471.529 21.7142 472.687 19.669 473.706 17.6287C473.863 17.3148 473.959 17.0257 473.959 16.7893C473.959 16.6991 473.972 16.6081 473.998 16.517C474.37 15.2142 476.247 13.1456 477.602 13.1456V13.1456" stroke="white" stroke-opacity="0.17" shape-rendering="crispEdges"/>
</g>
<defs>
<filter id="filter0_d_220_366" x="0.499878" y="0.5" width="1083" height="293.503" filterUnits="userSpaceOnUse" color-interpolation-filters="sRGB">
<feFlood flood-opacity="0" result="BackgroundImageFix"/>
<feColorMatrix in="SourceAlpha" type="matrix" values="0 0 0 0 0 0 0 0 0 0 0 0 0 0 0 0 0 0 127 0" result="hardAlpha"/>
<feOffset dy="4"/>
<feGaussianBlur stdDeviation="2"/>
<feComposite in2="hardAlpha" operator="out"/>
<feColorMatrix type="matrix" values="0 0 0 0 0.270588 0 0 0 0 0.764706 0 0 0 0 0.678431 0 0 0 0.3 0"/>
<feBlend mode="normal" in2="BackgroundImageFix" result="effect1_dropShadow_220_366"/>
<feBlend mode="normal" in="SourceGraphic" in2="effect1_dropShadow_220_366" result="shape"/>
</filter>
</defs>
</svg>
