<svg width="58" height="46" viewBox="0 0 58 46" fill="none" xmlns="http://www.w3.org/2000/svg">
<path d="M3 43.29V40.92C3 31.7575 10.4276 24.33 19.59 24.33C28.7524 24.33 36.18 31.7575 36.18 40.92V43.29" stroke="#DEFFBD" stroke-width="4.19" stroke-linecap="round"/>
<path d="M31.44 29.0699C31.44 22.5253 36.7455 17.2198 43.29 17.2198C49.8345 17.2198 55.14 22.5253 55.14 29.0699V30.2549" stroke="#DEFFBD" stroke-width="4.19" stroke-linecap="round"/>
<path d="M19.59 24.33C24.8256 24.33 29.07 20.0856 29.07 14.85C29.07 9.61433 24.8256 5.37 19.59 5.37C14.3543 5.37 10.11 9.61433 10.11 14.85C10.11 20.0856 14.3543 24.33 19.59 24.33Z" stroke="#DEFFBD" stroke-width="4.19" stroke-linecap="round" stroke-linejoin="round"/>
<path d="M43.2901 17.22C47.2169 17.22 50.4001 14.0367 50.4001 10.11C50.4001 6.18327 47.2169 3 43.2901 3C39.3632 3 36.1801 6.18327 36.1801 10.11C36.1801 14.0367 39.3632 17.22 43.2901 17.22Z" stroke="#DEFFBD" stroke-width="4.19" stroke-linecap="round" stroke-linejoin="round"/>
</svg>
