<svg width="25" height="23" viewBox="0 0 25 23" fill="none" xmlns="http://www.w3.org/2000/svg">
<path d="M4.90781 18.7835C4.66186 18.7841 4.42125 18.7118 4.21641 18.5757C4.01156 18.4395 3.85167 18.2457 3.75696 18.0188C3.66224 17.7918 3.63695 17.5418 3.68429 17.3005C3.73163 17.0591 3.84946 16.8372 4.02289 16.6628C4.19633 16.4884 4.41758 16.3694 4.65866 16.3207C4.89975 16.2721 5.14985 16.296 5.37735 16.3895C5.60485 16.4829 5.79952 16.6418 5.93676 16.8459C6.074 17.0499 6.14765 17.2902 6.14839 17.5361V17.5429C6.14839 17.8719 6.01768 18.1875 5.78503 18.4201C5.55238 18.6528 5.23683 18.7835 4.90781 18.7835ZM4.90781 18.7835H4.90099M13.2011 13.7765L14.1439 12.8436C14.35 12.6377 14.4659 12.3583 14.4661 12.067C14.4664 11.7756 14.3509 11.4961 14.1451 11.2898L14.1439 11.2886C14.0424 11.186 13.9216 11.1045 13.7886 11.0486C13.6556 10.9928 13.5128 10.9636 13.3685 10.963C13.2242 10.9623 13.0812 10.99 12.9476 11.0446C12.8141 11.0992 12.6926 11.1796 12.5901 11.2811L12.582 11.2886L11.6423 12.2215C10.5011 11.3994 9.13034 10.957 7.72392 10.957C6.31749 10.957 4.94669 11.3994 3.80556 12.2215L2.89994 11.3028C2.69282 11.0955 2.41185 10.9788 2.11876 10.9785C1.82568 10.9781 1.54443 11.0941 1.33682 11.301L1.33496 11.3028C1.12958 11.5094 1.0143 11.7888 1.0143 12.0801C1.0143 12.3713 1.12958 12.6507 1.33496 12.8573L2.27531 13.7834C1.44883 14.9255 1.00265 16.2987 1 17.7085V20.9185C1 21.3099 1.31697 21.6269 1.70837 21.6269H13.7674C13.9522 21.6224 14.128 21.5457 14.2571 21.4134C14.3862 21.281 14.4584 21.1034 14.4584 20.9185V17.7085C14.4631 16.2983 14.0231 14.9224 13.2011 13.7765ZM10.5816 18.7835C10.3356 18.7855 10.0946 18.7144 9.88906 18.5794C9.68348 18.4445 9.52253 18.2515 9.42658 18.0251C9.33063 17.7986 9.30397 17.5488 9.34998 17.3072C9.396 17.0656 9.51261 16.8431 9.68508 16.6677C9.85756 16.4924 10.0781 16.3721 10.319 16.3221C10.5598 16.2722 10.81 16.2947 11.038 16.3869C11.266 16.4791 11.4615 16.6369 11.5999 16.8402C11.7383 17.0435 11.8132 17.2833 11.8153 17.5293V17.5429C11.8153 17.8719 11.6846 18.1875 11.452 18.4201C11.2193 18.6528 10.9038 18.7835 10.5748 18.7835H10.5816Z" stroke="white" stroke-width="2" stroke-linecap="round" stroke-linejoin="round"/>
<path d="M7.21643 5.97473C13.7108 5.97473 18.9758 11.2397 18.9758 17.7341" stroke="white" stroke-width="2" stroke-linecap="round" stroke-linejoin="round"/>
<path d="M7.21637 1C16.4587 1 23.9505 8.49183 23.9505 17.7341" stroke="white" stroke-width="2" stroke-linecap="round" stroke-linejoin="round"/>
</svg>
