<svg width="43" height="54" viewBox="0 0 43 54" fill="none" xmlns="http://www.w3.org/2000/svg">
<path d="M34.6972 13.5657C37.6149 13.5657 39.9801 11.2005 39.9801 8.28286C39.9801 5.36521 37.6149 3 34.6972 3C31.7795 3 29.4144 5.36521 29.4144 8.28286C29.4144 11.2005 31.7795 13.5657 34.6972 13.5657Z" stroke="#DEFFBD" stroke-width="5.25" stroke-linecap="round" stroke-linejoin="round"/>
<path d="M8.28286 13.5657C11.2005 13.5657 13.5657 11.2005 13.5657 8.28286C13.5657 5.36521 11.2005 3 8.28286 3C5.36521 3 3 5.36521 3 8.28286C3 11.2005 5.36521 13.5657 8.28286 13.5657Z" stroke="#DEFFBD" stroke-width="5.25" stroke-linecap="round" stroke-linejoin="round"/>
<path d="M8.28286 50.5457C11.2005 50.5457 13.5657 48.1806 13.5657 45.2628C13.5657 42.3451 11.2005 39.98 8.28286 39.98C5.36521 39.98 3 42.3451 3 45.2628C3 48.1806 5.36521 50.5457 8.28286 50.5457Z" stroke="#DEFFBD" stroke-width="5.25" stroke-linecap="round" stroke-linejoin="round"/>
<path d="M8.28278 13.5657V39.98" stroke="#DEFFBD" stroke-width="5.25" stroke-linecap="round" stroke-linejoin="round"/>
<path d="M34.6971 13.5657V16.2071C34.6971 22.8107 29.4142 24.1314 29.4142 24.1314L13.5656 29.4142C13.5656 29.4142 8.28278 30.735 8.28278 37.3385V39.98" stroke="#DEFFBD" stroke-width="5.25" stroke-linecap="round" stroke-linejoin="round"/>
</svg>
