<svg width="72" height="45" viewBox="0 0 72 45" fill="none" xmlns="http://www.w3.org/2000/svg">
<path d="M8.2116 21.279C7.5016 21.279 6.8366 21.144 6.2166 20.874C5.5966 20.594 5.0466 20.209 4.5666 19.719C4.0966 19.229 3.7266 18.664 3.4566 18.024C3.1866 17.384 3.0516 16.694 3.0516 15.954C3.0516 15.204 3.1816 14.499 3.4416 13.839C3.7116 13.179 4.0816 12.599 4.5516 12.099C5.0316 11.599 5.5816 11.209 6.2016 10.929C6.8316 10.639 7.5016 10.494 8.2116 10.494C9.0616 10.494 9.8516 10.689 10.5816 11.079C11.3116 11.459 11.9366 12.019 12.4566 12.759L11.4216 13.434C11.0116 12.874 10.5316 12.454 9.9816 12.174C9.4316 11.884 8.8416 11.739 8.2116 11.739C7.6516 11.739 7.1316 11.854 6.6516 12.084C6.1816 12.304 5.7666 12.609 5.4066 12.999C5.0566 13.389 4.7816 13.839 4.5816 14.349C4.3916 14.849 4.2966 15.384 4.2966 15.954C4.2966 16.504 4.3966 17.029 4.5966 17.529C4.7966 18.019 5.0766 18.454 5.4366 18.834C5.7966 19.214 6.2116 19.514 6.6816 19.734C7.1616 19.954 7.6716 20.064 8.2116 20.064C8.9616 20.064 9.5816 19.954 10.0716 19.734C10.5716 19.514 11.0016 19.124 11.3616 18.564V17.289H9.5166V16.119H12.6066V18.864C12.1866 19.704 11.6166 20.319 10.8966 20.709C10.1866 21.089 9.2916 21.279 8.2116 21.279ZM14.7486 12.639C14.5286 12.639 14.3386 12.564 14.1786 12.414C14.0286 12.254 13.9536 12.064 13.9536 11.844C13.9536 11.624 14.0286 11.439 14.1786 11.289C14.3386 11.129 14.5286 11.049 14.7486 11.049C14.9686 11.049 15.1536 11.129 15.3036 11.289C15.4636 11.439 15.5436 11.624 15.5436 11.844C15.5436 12.064 15.4636 12.254 15.3036 12.414C15.1536 12.564 14.9686 12.639 14.7486 12.639ZM15.3186 21.129H14.1936V13.629H15.3186V21.129ZM18.1994 17.889V14.739H16.8944V13.629H18.1994V10.629H19.3844V13.629H20.7044V14.739H19.3844V17.889C19.3844 18.529 19.4044 18.999 19.4444 19.299C19.4944 19.589 19.5894 19.774 19.7294 19.854C19.8694 19.934 20.0744 19.979 20.3444 19.989H20.7194V21.174H20.3894C19.9294 21.174 19.5544 21.134 19.2644 21.054C18.9744 20.964 18.7494 20.804 18.5894 20.574C18.4394 20.344 18.3344 20.014 18.2744 19.584C18.2244 19.154 18.1994 18.589 18.1994 17.889ZM28.6806 21.129H27.4956V16.659C27.4956 15.979 27.3056 15.484 26.9256 15.174C26.5456 14.854 26.0456 14.694 25.4256 14.694C25.0756 14.694 24.7456 14.769 24.4356 14.919C24.1356 15.059 23.8906 15.244 23.7006 15.474C23.5106 15.704 23.4156 15.934 23.4156 16.164V21.129H22.2306V10.629H23.4156V14.364C23.6856 14.064 24.0256 13.854 24.4356 13.734C24.8456 13.614 25.2306 13.559 25.5906 13.569C26.5606 13.609 27.3156 13.894 27.8556 14.424C28.4056 14.954 28.6806 15.699 28.6806 16.659V21.129ZM36.4425 21.129H35.2575V20.349C35.0575 20.649 34.7725 20.874 34.4025 21.024C34.0325 21.174 33.6275 21.254 33.1875 21.264C32.7475 21.284 32.3175 21.234 31.8975 21.114C31.4775 20.984 31.1225 20.789 30.8325 20.529C30.5325 20.269 30.2975 19.939 30.1275 19.539C29.9675 19.139 29.8875 18.679 29.8875 18.159V13.629H31.0875V18.159C31.0875 18.849 31.2825 19.354 31.6725 19.674C32.0725 19.994 32.5825 20.154 33.2025 20.154C33.5125 20.154 33.8225 20.084 34.1325 19.944C34.4525 19.804 34.7175 19.589 34.9275 19.299C35.1475 18.999 35.2575 18.619 35.2575 18.159V13.629H36.4425V21.129ZM44.4577 17.304C44.4577 17.984 44.3527 18.599 44.1427 19.149C43.9327 19.689 43.6227 20.134 43.2127 20.484C42.8027 20.834 42.2927 21.044 41.6827 21.114C41.1827 21.194 40.7027 21.159 40.2427 21.009C39.7827 20.859 39.4127 20.664 39.1327 20.424V21.129H37.9477V10.629H39.1327V13.944C39.5027 13.754 39.8477 13.639 40.1677 13.599C40.4877 13.559 40.7877 13.539 41.0677 13.539C41.7877 13.539 42.3977 13.704 42.8977 14.034C43.4077 14.354 43.7927 14.799 44.0527 15.369C44.3227 15.929 44.4577 16.574 44.4577 17.304ZM43.2577 17.304C43.2577 16.524 43.0627 15.919 42.6727 15.489C42.2927 15.049 41.7877 14.794 41.1577 14.724C40.5277 14.654 39.8527 14.769 39.1327 15.069V19.419C39.6427 19.769 40.1427 19.974 40.6327 20.034C41.1227 20.094 41.5627 20.024 41.9527 19.824C42.3527 19.624 42.6677 19.314 42.8977 18.894C43.1377 18.464 43.2577 17.934 43.2577 17.304Z" fill="url(#paint0_linear_90_394)"/>
<path d="M25.7584 30.2467V27.7267H24.7144V26.8387H25.7584V24.4387H26.7064V26.8387H27.7624V27.7267H26.7064V30.2467C26.7064 30.7587 26.7224 31.1347 26.7544 31.3747C26.7944 31.6067 26.8704 31.7547 26.9824 31.8187C27.0944 31.8827 27.2584 31.9187 27.4744 31.9267H27.7744V32.8747H27.5104C27.1424 32.8747 26.8424 32.8427 26.6104 32.7787C26.3784 32.7067 26.1984 32.5787 26.0704 32.3947C25.9504 32.2107 25.8664 31.9467 25.8184 31.6027C25.7784 31.2587 25.7584 30.8067 25.7584 30.2467ZM29.5954 26.0467C29.4194 26.0467 29.2674 25.9867 29.1394 25.8667C29.0194 25.7387 28.9594 25.5867 28.9594 25.4107C28.9594 25.2347 29.0194 25.0867 29.1394 24.9667C29.2674 24.8387 29.4194 24.7747 29.5954 24.7747C29.7714 24.7747 29.9194 24.8387 30.0394 24.9667C30.1674 25.0867 30.2314 25.2347 30.2314 25.4107C30.2314 25.5867 30.1674 25.7387 30.0394 25.8667C29.9194 25.9867 29.7714 26.0467 29.5954 26.0467ZM30.0514 32.8387H29.1514V26.8387H30.0514V32.8387ZM40.564 32.8387H39.628V29.2987C39.628 28.7547 39.484 28.3507 39.196 28.0867C38.916 27.8227 38.552 27.6907 38.104 27.6907C37.64 27.6907 37.256 27.8227 36.952 28.0867C36.648 28.3507 36.496 28.7547 36.496 29.2987V32.8387H35.572V29.2987C35.572 28.7387 35.42 28.3307 35.116 28.0747C34.812 27.8187 34.432 27.6907 33.976 27.6907C33.736 27.6907 33.492 27.7467 33.244 27.8587C32.996 27.9707 32.788 28.1467 32.62 28.3867C32.46 28.6187 32.38 28.9227 32.38 29.2987V32.8387H31.432V26.8387H32.38V27.4507C32.58 27.2267 32.82 27.0587 33.1 26.9467C33.38 26.8347 33.672 26.7747 33.976 26.7667C34.368 26.7667 34.752 26.8467 35.128 27.0067C35.512 27.1587 35.832 27.4027 36.088 27.7387C36.304 27.4107 36.6 27.1707 36.976 27.0187C37.352 26.8587 37.744 26.7787 38.152 26.7787C38.576 26.7787 38.972 26.8787 39.34 27.0787C39.708 27.2707 40.004 27.5547 40.228 27.9307C40.452 28.3067 40.564 28.7627 40.564 29.2987V32.8387ZM47.1831 30.1267H42.5151C42.5311 30.6467 42.6711 31.0587 42.9351 31.3627C43.1991 31.6667 43.5351 31.8667 43.9431 31.9627C44.3511 32.0587 44.7871 32.0507 45.2511 31.9387C45.7151 31.8267 46.1551 31.6147 46.5711 31.3027L47.0751 32.0467C46.6831 32.3507 46.2751 32.5747 45.8511 32.7187C45.4271 32.8627 45.0031 32.9387 44.5791 32.9467C43.5791 32.9707 42.8151 32.6947 42.2871 32.1187C41.7591 31.5347 41.4951 30.7227 41.4951 29.6827C41.4951 28.7947 41.7431 28.0867 42.2391 27.5587C42.7431 27.0307 43.4711 26.7707 44.4231 26.7787C45.0471 26.7787 45.5791 26.9067 46.0191 27.1627C46.4591 27.4187 46.7831 27.7987 46.9911 28.3027C47.0951 28.5507 47.1591 28.8267 47.1831 29.1307C47.2151 29.4347 47.2151 29.7667 47.1831 30.1267ZM44.4711 27.6667C43.9271 27.6667 43.4631 27.8107 43.0791 28.0987C42.7031 28.3787 42.5151 28.7987 42.5151 29.3587H46.3311C46.3311 28.8307 46.1631 28.4187 45.8271 28.1227C45.4991 27.8187 45.0471 27.6667 44.4711 27.6667ZM58.1305 26.0467C57.9545 26.0467 57.8025 25.9867 57.6745 25.8667C57.5545 25.7387 57.4945 25.5867 57.4945 25.4107C57.4945 25.2347 57.5545 25.0867 57.6745 24.9667C57.8025 24.8387 57.9545 24.7747 58.1305 24.7747C58.3065 24.7747 58.4545 24.8387 58.5745 24.9667C58.7025 25.0867 58.7665 25.2347 58.7665 25.4107C58.7665 25.5867 58.7025 25.7387 58.5745 25.8667C58.4545 25.9867 58.3065 26.0467 58.1305 26.0467ZM58.5865 32.8387H57.6865V26.8387H58.5865V32.8387ZM65.2232 32.8387H64.2752V29.2747C64.2752 28.8907 64.1912 28.5827 64.0232 28.3507C63.8632 28.1187 63.6552 27.9547 63.3992 27.8587C63.1512 27.7547 62.8912 27.7027 62.6192 27.7027C62.3552 27.7027 62.0912 27.7587 61.8272 27.8707C61.5712 27.9827 61.3552 28.1547 61.1792 28.3867C61.0032 28.6187 60.9152 28.9147 60.9152 29.2747V32.8387H59.9672V26.8387H60.9152V27.4867C61.0992 27.2387 61.3512 27.0587 61.6712 26.9467C61.9912 26.8267 62.3232 26.7667 62.6672 26.7667C63.1312 26.7667 63.5552 26.8627 63.9392 27.0547C64.3312 27.2467 64.6432 27.5307 64.8752 27.9067C65.1072 28.2747 65.2232 28.7307 65.2232 29.2747V32.8387ZM71.851 30.1267H67.183C67.199 30.6467 67.339 31.0587 67.603 31.3627C67.867 31.6667 68.203 31.8667 68.611 31.9627C69.019 32.0587 69.455 32.0507 69.919 31.9387C70.383 31.8267 70.823 31.6147 71.239 31.3027L71.743 32.0467C71.351 32.3507 70.943 32.5747 70.519 32.7187C70.095 32.8627 69.671 32.9387 69.247 32.9467C68.247 32.9707 67.483 32.6947 66.955 32.1187C66.427 31.5347 66.163 30.7227 66.163 29.6827C66.163 28.7947 66.411 28.0867 66.907 27.5587C67.411 27.0307 68.139 26.7707 69.091 26.7787C69.715 26.7787 70.247 26.9067 70.687 27.1627C71.127 27.4187 71.451 27.7987 71.659 28.3027C71.763 28.5507 71.827 28.8267 71.851 29.1307C71.883 29.4347 71.883 29.7667 71.851 30.1267ZM69.139 27.6667C68.595 27.6667 68.131 27.8107 67.747 28.0987C67.371 28.3787 67.183 28.7987 67.183 29.3587H70.999C70.999 28.8307 70.831 28.4187 70.495 28.1227C70.167 27.8187 69.715 27.6667 69.139 27.6667Z" fill="white"/>
<path d="M36.7742 2.9987C43.7204 0.955691 58.1032 -1.29162 60.0645 6.06322C62.5161 15.2568 35.5484 56.9342 53.3226 39.16" stroke="white"/>
<path d="M60.7903 16.3226C60.7903 17.7389 59.6421 18.8871 58.2258 18.8871C56.8095 18.8871 55.6613 17.7389 55.6613 16.3226C55.6613 14.9062 56.8095 13.7581 58.2258 13.7581C59.6421 13.7581 60.7903 14.9062 60.7903 16.3226Z" fill="white" stroke="#17181F"/>
<defs>
<linearGradient id="paint0_linear_90_394" x1="34.629" y1="-2.06453" x2="42.4875" y2="23.279" gradientUnits="userSpaceOnUse">
<stop stop-color="#2BDADD"/>
<stop offset="1" stop-color="white" stop-opacity="0"/>
</linearGradient>
</defs>
</svg>
