<svg width="21" height="20" viewBox="0 0 21 20" fill="none" xmlns="http://www.w3.org/2000/svg">
<path fill-rule="evenodd" clip-rule="evenodd" d="M0.69918 0H18.8779L19.577 0.69918V8.39435C19.144 8.06945 18.6748 7.79587 18.1787 7.57911V1.39836H1.39836V13.9836H8.39016C8.39016 15.4964 8.88083 16.9684 9.78852 18.1787H4.19508V16.7803H8.39016V15.382H0.69918L0 14.6828V0.69918L0.69918 0Z" fill="white" fill-opacity="0.74"/>
<path fill-rule="evenodd" clip-rule="evenodd" d="M12.2748 9.33269C12.8855 8.92007 13.5717 8.6322 14.2939 8.48563C15.0162 8.33906 15.7604 8.33667 16.4836 8.47862C17.2068 8.62056 17.8948 8.90403 18.5081 9.31273C19.1214 9.72143 19.6479 10.2473 20.0573 10.8601C20.4668 11.473 20.751 12.1607 20.8938 12.8837C21.0366 13.6068 21.0351 14.3509 20.8893 15.0734C20.7436 15.7958 20.4565 16.4824 20.0446 17.0935C19.6327 17.7047 19.1041 18.2284 18.4891 18.6346C17.2555 19.4494 15.7495 19.7427 14.3003 19.4503C12.8511 19.158 11.5766 18.3038 10.7553 17.0745C9.93406 15.8452 9.63288 14.3408 9.9176 12.8901C10.2023 11.4394 11.0498 10.1604 12.2748 9.33269ZM15.2533 16.3105L18.5912 11.8609L17.4725 11.0219L14.5681 14.894L12.7488 13.4383L11.8749 14.529L14.2577 16.4364L15.2547 16.3105H15.2533Z" fill="white" fill-opacity="0.74"/>
</svg>
