<svg width="24" height="22" viewBox="0 0 24 22" fill="none" xmlns="http://www.w3.org/2000/svg">
<path d="M23.87 10.326C23.941 10.339 24 10.41 24 10.483V13.516C23.9989 13.5529 23.9855 13.5884 23.9619 13.6168C23.9384 13.6452 23.906 13.665 23.87 13.673L20.995 14.208C20.9565 14.2174 20.9209 14.2361 20.8912 14.2624C20.8616 14.2887 20.8389 14.3219 20.825 14.359L19.927 16.601C19.9115 16.6378 19.9049 16.6777 19.9079 16.7176C19.9109 16.7574 19.9232 16.7959 19.944 16.83L21.577 19.209C21.5968 19.2404 21.6056 19.2775 21.602 19.3144C21.5984 19.3514 21.5825 19.3861 21.557 19.413L19.413 21.557C19.386 21.5821 19.3515 21.5976 19.3147 21.6011C19.278 21.6045 19.2412 21.5957 19.21 21.576L16.872 19.972C16.8384 19.9517 16.8002 19.9403 16.761 19.9389C16.7218 19.9375 16.6829 19.9461 16.648 19.964L15.618 20.514C15.603 20.5221 15.5864 20.527 15.5693 20.5282C15.5523 20.5294 15.5351 20.5271 15.5191 20.5212C15.503 20.5153 15.4884 20.5061 15.4761 20.4942C15.4639 20.4823 15.4543 20.4679 15.448 20.452L13.323 15.317C13.3099 15.2827 13.3089 15.245 13.3202 15.2101C13.3315 15.1752 13.3543 15.1451 13.385 15.125L13.643 14.967C13.691 14.937 13.756 14.887 13.806 14.842C14.4173 14.4514 14.8854 13.8731 15.1402 13.194C15.3951 12.5148 15.4228 11.7713 15.2194 11.075C15.0159 10.3787 14.5922 9.76714 14.0117 9.33204C13.4313 8.89694 12.7254 8.66175 12 8.66175C11.2746 8.66175 10.5687 8.89694 9.98829 9.33204C9.40784 9.76714 8.98411 10.3787 8.78064 11.075C8.57717 11.7713 8.60493 12.5148 8.85975 13.194C9.11458 13.8731 9.58273 14.4514 10.194 14.842C10.244 14.888 10.309 14.938 10.357 14.967L10.615 15.125C10.6458 15.145 10.6688 15.175 10.6801 15.21C10.6914 15.245 10.6903 15.2827 10.677 15.317L8.552 20.451C8.54582 20.467 8.53631 20.4815 8.5241 20.4935C8.51189 20.5055 8.49727 20.5149 8.4812 20.5208C8.46512 20.5268 8.44797 20.5292 8.43087 20.5281C8.41376 20.5269 8.39711 20.5221 8.382 20.514L7.352 19.964C7.31716 19.946 7.2783 19.9371 7.23909 19.9384C7.19988 19.9396 7.16164 19.9508 7.128 19.971L4.79 21.576C4.75866 21.5958 4.72166 21.6046 4.68477 21.6012C4.64787 21.5978 4.61315 21.5822 4.586 21.557L2.441 19.413C2.41562 19.3859 2.39998 19.3512 2.39654 19.3143C2.3931 19.2773 2.40206 19.2403 2.422 19.209L4.055 16.829C4.07568 16.7951 4.08801 16.7567 4.09097 16.717C4.09392 16.6774 4.08742 16.6376 4.072 16.601L3.175 14.359C3.16092 14.3221 3.13809 14.2892 3.10848 14.2631C3.07887 14.2369 3.04336 14.2184 3.005 14.209L0.13 13.672C0.0939587 13.664 0.0616087 13.6442 0.0380648 13.6158C0.0145209 13.5874 0.00112672 13.5519 0 13.515L0 10.483C0 10.41 0.059 10.339 0.13 10.326L3.077 9.778C3.11596 9.76864 3.15215 9.75016 3.18257 9.72409C3.213 9.69801 3.23679 9.66507 3.252 9.628L4.155 7.52C4.17111 7.48383 4.17825 7.4443 4.17581 7.40478C4.17337 7.36526 4.16143 7.32692 4.141 7.293L2.424 4.79C2.40431 4.75881 2.39549 4.72199 2.39893 4.68526C2.40236 4.64854 2.41786 4.61399 2.443 4.587L4.587 2.441C4.61398 2.41547 4.64874 2.39972 4.68572 2.39627C4.7227 2.39283 4.75977 2.40189 4.791 2.422L7.337 4.171C7.397 4.212 7.5 4.219 7.566 4.187L9.609 3.351C9.679 3.328 9.746 3.251 9.759 3.178L10.326 0.131C10.334 0.094854 10.3537 0.0623742 10.3821 0.0386627C10.4105 0.0149512 10.446 0.00135148 10.483 0H13.517C13.59 0 13.66 0.059 13.674 0.13L14.241 3.178C14.2504 3.2167 14.2689 3.25259 14.295 3.28268C14.3211 3.31277 14.354 3.3362 14.391 3.351L16.434 4.187C16.4708 4.20283 16.5109 4.20963 16.5509 4.20685C16.5909 4.20406 16.6297 4.19177 16.664 4.171L19.21 2.423C19.2412 2.40327 19.2782 2.39452 19.3149 2.39814C19.3517 2.40176 19.3862 2.41755 19.413 2.443L21.557 4.587C21.609 4.638 21.617 4.73 21.577 4.79L19.859 7.293C19.8385 7.32689 19.8265 7.36524 19.8241 7.40478C19.8216 7.44431 19.8288 7.48385 19.845 7.52L20.748 9.628C20.7634 9.66494 20.7873 9.69776 20.8177 9.72381C20.8481 9.74986 20.8841 9.76842 20.923 9.778L23.87 10.326Z" fill="white"/>
</svg>
