<svg viewBox="0 0 650 1131" fill="none" xmlns="http://www.w3.org/2000/svg">
<path d="M39.797 1H607.035C619.768 1.28721 645.233 13.0053 645.233 57.5801C645.233 102.155 645.233 411.613 645.233 480.639C645.616 488.681 638.513 504.764 607.035 504.764C575.557 504.764 203.889 504.764 39.2225 504.764C26.1067 503.233 0.104665 505.741 1.02373 528.028C1.9428 550.316 1.40668 812.652 1.02373 932.131C1.50245 939.79 7.39988 955.108 27.1599 955.108C46.9198 955.108 421.977 955.108 607.035 955.108C621.683 955.108 640.926 953.097 647.244 966.596C651.84 986.414 645.233 1079.85 645.233 1130.88" stroke="url(#paint0_linear_146_423)" stroke-width="2"/>
<defs>
<linearGradient id="paint0_linear_146_423" x1="305.819" y1="1" x2="769.882" y2="1749.81" gradientUnits="userSpaceOnUse">
<stop stop-color="#3FF0FC"/>
<stop offset="0.78125" stop-color="#E1CD18" stop-opacity="0"/>
<stop offset="0.958333" stop-color="#2D2C24" stop-opacity="0"/>
</linearGradient>
</defs>
</svg>
